<svg width="40" height="40" viewBox="0 0 40 40" fill="none" xmlns="http://www.w3.org/2000/svg">
<path d="M20 40C31.0457 40 40 31.0457 40 20C40 8.9543 31.0457 0 20 0C8.9543 0 0 8.9543 0 20C0 31.0457 8.9543 40 20 40Z" fill="#101D23"/>
<path d="M28.2952 21.7226L28.2793 21.5001C28.2634 21.3412 28.2475 21.1823 28.2157 21.0234C28.18 20.5984 28.1103 20.177 28.0076 19.7631C27.9641 19.5516 27.9057 19.3434 27.8327 19.1402C27.7314 18.7669 27.6089 18.3997 27.4656 18.0404C26.8109 16.4131 25.8542 15.1211 25.0087 13.9721C23.7644 12.313 22.7759 10.9892 22.7759 9.02654C22.7767 8.83181 22.7233 8.64071 22.6217 8.47457C22.5201 8.30844 22.3743 8.17382 22.2006 8.08573C22.0292 7.99166 21.8341 7.94912 21.6391 7.96321C21.444 7.97731 21.2571 8.04744 21.1009 8.16519C19.6486 9.2347 18.4455 10.6064 17.5745 12.1859L17.5268 12.2812C17.3997 12.5196 17.2726 12.7754 17.1597 13.0154C17.121 13.0974 17.0891 13.1825 17.0644 13.2697C16.8368 13.7499 16.6605 14.2527 16.5383 14.7699C16.2399 16.0409 16.08 17.3405 16.0616 18.6459C15.1843 17.8799 14.9126 16.2844 14.9126 16.2621C14.8903 16.0964 14.8278 15.9387 14.7306 15.8027C14.6334 15.6667 14.5044 15.5566 14.3548 15.4818C14.2094 15.4011 14.0463 15.3574 13.88 15.3546C13.7137 15.3518 13.5493 15.3901 13.4013 15.4659C13.2106 15.5613 11.5673 16.4544 10.849 19.342C10.8172 19.4691 10.7855 19.6122 10.7537 19.7568C10.6901 20.0428 10.6424 20.3464 10.5948 20.6817C10.5948 20.7452 10.5789 20.8247 10.5789 20.9042C10.54 21.2382 10.5183 21.5739 10.5137 21.9101C10.4883 22.0897 10.4883 22.2486 10.4883 22.425C10.4907 24.0281 10.9252 25.6009 11.7461 26.9779C12.567 28.3548 13.7439 29.485 15.153 30.2495C16.562 31.014 18.1511 31.3845 19.753 31.3219C21.3549 31.2594 22.9103 30.7662 24.2555 29.8942C24.2882 29.8823 24.3161 29.86 24.3349 29.8307C24.6281 29.6522 24.9056 29.4491 25.1645 29.2236C25.2296 29.16 25.2932 29.1124 25.3568 29.0488C26.2917 28.2181 27.0397 27.1984 27.5511 26.0571C28.0626 24.9158 28.326 23.6789 28.3238 22.4282C28.327 22.1692 28.3111 21.9467 28.2952 21.7226ZM24.3858 28.3114C24.2904 28.3909 24.1792 28.4878 24.0679 28.5673C23.9199 28.6819 23.7655 28.788 23.6055 28.8851C23.3859 29.0287 23.1565 29.1567 22.919 29.2681C21.8384 29.8405 20.6328 30.1364 19.41 30.1294C17.3652 30.129 15.404 29.3177 13.9564 27.8735C12.5089 26.4292 11.6932 24.4698 11.6881 22.425C11.6855 22.2707 11.6908 22.1163 11.704 21.9626V21.8037C11.7199 21.5319 11.7358 21.276 11.7517 21.0377C11.7835 20.8295 11.7994 20.6229 11.8486 20.4147C11.861 20.2752 11.8822 20.1367 11.9122 19.9999C12.3747 17.7989 13.3631 16.9058 13.762 16.634C13.905 17.3841 14.5439 19.7615 16.5066 20.1922L17.2392 20.3352V19.601C17.2392 18.4044 17.3043 16.6181 17.6857 15.0559C17.7996 14.6204 17.9495 14.1952 18.1339 13.7846C18.1657 13.7051 18.2134 13.6098 18.2451 13.5303C18.3564 13.2744 18.4835 13.0361 18.6122 12.7961C18.6165 12.7961 18.6205 12.7944 18.6235 12.7914C18.6265 12.7885 18.6281 12.7844 18.6281 12.7802C19.3635 11.4249 20.3741 10.2384 21.5952 9.2967C21.6746 11.4977 22.8236 13.0456 24.0521 14.7C24.6734 15.5454 25.3234 16.4226 25.8542 17.427C26.038 17.769 26.203 18.1207 26.3484 18.4806C26.4969 18.838 26.6196 19.2055 26.7155 19.5804C26.7632 19.725 26.8109 19.8839 26.8427 20.0269C26.9567 20.537 27.0368 21.0541 27.0826 21.5748L27.0985 21.7989C27.1144 22.0055 27.1303 22.1978 27.1303 22.4203C27.1297 23.5429 26.8837 24.6518 26.4096 25.6694C25.9356 26.687 25.2448 27.5887 24.3858 28.3114V28.3114Z" fill="#C32E18"/>
<path d="M12.2147 12.4021C12.9169 12.4021 13.4861 11.8329 13.4861 11.1307C13.4861 10.4286 12.9169 9.85938 12.2147 9.85938C11.5126 9.85938 10.9434 10.4286 10.9434 11.1307C10.9434 11.8329 11.5126 12.4021 12.2147 12.4021Z" fill="white"/>
<path d="M28.5467 31.6105C29.2489 31.6105 29.8181 31.0413 29.8181 30.3391C29.8181 29.637 29.2489 29.0677 28.5467 29.0677C27.8446 29.0677 27.2754 29.637 27.2754 30.3391C27.2754 31.0413 27.8446 31.6105 28.5467 31.6105Z" fill="white"/>
<path d="M27.8326 19.1385C27.9056 19.3418 27.964 19.5499 28.0075 19.7615C28.1102 20.1753 28.1799 20.5967 28.2156 21.0217C31.5974 24.4512 32.9689 27.5294 32.0122 28.9343C31.2176 30.0976 28.7258 30.1786 25.3599 29.0455C24.9211 28.9095 24.4898 28.7503 24.0678 28.5688C21.6336 27.5732 19.3177 26.31 17.1628 24.8024C15.2604 23.5073 13.4824 22.0384 11.8517 20.4146C11.4846 20.0475 11.1493 19.6979 10.8458 19.3467C8.14413 16.3161 7.12863 13.6669 7.98521 12.4226C8.39999 11.8171 9.27722 11.4976 10.4898 11.4976C11.8787 11.4976 13.7127 11.9124 15.8183 12.742C16.2172 12.9009 16.632 13.0773 17.0627 13.268C17.0874 13.1808 17.1193 13.0957 17.158 13.0137C17.2709 12.7738 17.398 12.5179 17.5251 12.2795C12.6113 10.0785 8.46673 9.75907 7.07619 11.8028C5.75239 13.7003 7.25259 17.1297 10.5867 20.688C10.9522 21.0551 11.3193 21.4381 11.6992 21.8004C13.2074 23.2257 14.8237 24.5322 16.5335 25.7082C18.5383 27.1006 20.6755 28.2919 22.9141 29.2648C23.3909 29.473 23.8676 29.6637 24.3332 29.8242C26.28 30.541 28.0504 30.9081 29.5029 30.9081C31.081 30.9081 32.2776 30.4774 32.9165 29.5525C33.2405 29.0667 33.4069 28.493 33.3932 27.9092C33.3996 25.6002 31.3066 22.3296 27.8326 19.1385Z" fill="white"/>
</svg>
