<svg width="41" height="36" viewBox="0 0 41 36" fill="none" xmlns="http://www.w3.org/2000/svg">
<path d="M32.9779 21.584L32.9543 21.2502C32.9308 21.0119 32.9072 20.7735 32.86 20.5351C32.807 19.8977 32.7037 19.2656 32.5512 18.6448C32.4867 18.3275 32.4 18.0152 32.2918 17.7103C32.1416 17.1504 31.9597 16.5996 31.7472 16.0607C30.7758 13.6197 29.3565 11.6817 28.1022 9.95822C26.2562 7.46954 24.7897 5.48385 24.7897 2.53986C24.7908 2.24777 24.7115 1.96112 24.5608 1.71192C24.4101 1.46272 24.1939 1.26079 23.9362 1.12866C23.6818 0.987553 23.3925 0.923735 23.103 0.944879C22.8136 0.966023 22.5364 1.07123 22.3047 1.24785C20.15 2.85211 18.3651 4.90972 17.073 7.27884L17.0022 7.42187C16.8136 7.77944 16.625 8.16323 16.4576 8.52318C16.4002 8.64618 16.3529 8.77374 16.3162 8.90458C15.9785 9.62487 15.717 10.3791 15.5358 11.1549C15.093 13.0614 14.8558 15.0108 14.8285 16.9689C13.527 15.82 13.1239 13.4266 13.1239 13.3933C13.0908 13.1447 12.9981 12.9081 12.8538 12.7041C12.7096 12.5001 12.5182 12.3349 12.2963 12.2228C12.0806 12.1017 11.8387 12.0361 11.592 12.0319C11.3452 12.0278 11.1013 12.0851 10.8817 12.199C10.5988 12.342 8.16093 13.6817 7.09525 18.013C7.0481 18.2038 7.00095 18.4183 6.95379 18.6352C6.85948 19.0643 6.78875 19.5196 6.71802 20.0226C6.71802 20.1179 6.69445 20.2371 6.69445 20.3563C6.63683 20.8573 6.60457 21.3609 6.59778 21.8653C6.56006 22.1346 6.56006 22.373 6.56006 22.6376C6.5636 25.0422 7.20822 27.4014 8.42608 29.4669C9.64394 31.5323 11.39 33.2276 13.4805 34.3743C15.5709 35.521 17.9285 36.0767 20.305 35.983C22.6814 35.8892 24.989 35.1494 26.9847 33.8414C27.0333 33.8236 27.0747 33.7901 27.1026 33.7461C27.5376 33.4783 27.9493 33.1737 28.3333 32.8355C28.43 32.7401 28.5243 32.6686 28.6186 32.5732C30.0056 31.3272 31.1152 29.7976 31.874 28.0857C32.6329 26.3737 33.0236 24.5184 33.0204 22.6424C33.0251 22.2538 33.0015 21.9201 32.9779 21.584ZM27.178 31.4672C27.0366 31.5864 26.8715 31.7318 26.7065 31.851C26.4869 32.0228 26.2578 32.182 26.0204 32.3277C25.6946 32.5431 25.3543 32.7351 25.0019 32.9022C23.3987 33.7608 21.6103 34.2047 19.7961 34.1942C16.7625 34.1936 13.8529 32.9767 11.7053 30.8103C9.5578 28.6439 8.3476 25.7048 8.34011 22.6376C8.33619 22.4061 8.34406 22.1746 8.36369 21.9439V21.7055C8.38727 21.2979 8.41084 20.9141 8.43442 20.5566C8.48157 20.2443 8.50515 19.9344 8.57824 19.6221C8.59653 19.4129 8.62803 19.2051 8.67254 18.9999C9.35863 15.6984 10.8251 14.3587 11.4169 13.9511C11.6291 15.0762 12.5769 18.6424 15.4886 19.2884L16.5755 19.5029V18.4016C16.5755 16.6066 16.6722 13.9272 17.238 11.584C17.4069 10.9307 17.6293 10.2928 17.9029 9.67693C17.95 9.55774 18.0208 9.41472 18.0679 9.29553C18.233 8.91174 18.4216 8.55417 18.6125 8.19421C18.6188 8.19421 18.6248 8.1917 18.6292 8.18723C18.6336 8.18276 18.6361 8.1767 18.6361 8.17038C19.7271 6.13744 21.2265 4.35761 23.0379 2.94511C23.1558 6.24666 24.8604 8.56847 26.6829 11.05C27.6048 12.3182 28.5691 13.634 29.3565 15.1406C29.6291 15.6535 29.8739 16.1811 30.0898 16.721C30.31 17.2571 30.492 17.8083 30.6344 18.3706C30.7051 18.5875 30.7758 18.8259 30.823 19.0405C30.9921 19.8056 31.1111 20.5813 31.179 21.3623L31.2026 21.6984C31.2262 22.0083 31.2497 22.2967 31.2497 22.6305C31.2488 24.3144 30.8839 25.9777 30.1806 27.5041C29.4772 29.0305 28.4525 30.3831 27.178 31.4672Z" fill="#C32E18"/>
<path d="M32.292 17.7079C32.4002 18.0128 32.4868 18.3251 32.5513 18.6424C32.7038 19.2632 32.8071 19.8953 32.8602 20.5327C37.8773 25.6769 39.912 30.2943 38.4927 32.4016C37.3138 34.1465 33.617 34.2681 28.6234 32.5685C27.9725 32.3644 27.3326 32.1257 26.7066 31.8533C23.0953 30.36 19.6595 28.4651 16.4625 26.2038C13.6402 24.2612 11.0024 22.0578 8.5831 19.6221C8.03848 19.0714 7.54101 18.547 7.09069 18.0202C3.08262 13.4743 1.57606 9.50053 2.84686 7.63402C3.46221 6.7258 4.76365 6.24666 6.56257 6.24666C8.62318 6.24666 11.344 6.86883 14.4679 8.11316C15.0597 8.35154 15.675 8.61614 16.314 8.9022C16.3507 8.77136 16.398 8.64379 16.4554 8.52079C16.6228 8.16084 16.8114 7.77705 17 7.41948C9.71008 4.11793 3.56123 3.63879 1.49826 6.70434C-0.465692 9.55059 1.75996 14.6948 6.70639 20.0321C7.24865 20.5828 7.79328 21.1573 8.35677 21.7008C10.5944 23.8387 12.9922 25.7985 15.5288 27.5625C18.5031 29.6511 21.6738 31.4381 24.9949 32.8974C25.7023 33.2097 26.4096 33.4958 27.1004 33.7365C29.9885 34.8116 32.615 35.3623 34.7699 35.3623C37.1111 35.3623 38.8864 34.7163 39.8342 33.3289C40.3148 32.6003 40.5618 31.7396 40.5415 30.8641C40.5509 27.4004 37.4459 22.4946 32.292 17.7079Z" fill="white"/>
</svg>
