<svg width="102" height="14" viewBox="0 0 102 14" fill="none" xmlns="http://www.w3.org/2000/svg">
<path d="M3.37861 12.6832L7.19853 0.151367H12.3306V13.2676H9.6891V0.728878L5.86404 13.2659H0.728516V0.151367H3.37861V12.6832Z" fill="#C32E18"/>
<path d="M17.4541 13.2659H14.804V0.151367H17.4541V5.52759H23.4575V0.151367H26.1093V13.2676H23.4592V7.89139H17.4558L17.4541 13.2659Z" fill="#C32E18"/>
<path d="M34.3903 13.2659H31.7299V2.52905H27.7642V0.151367H38.3662V2.52905H34.3903V13.2659Z" fill="#C32E18"/>
<path d="M48.6554 13.2659H40.019V0.151367H48.6554V2.52905H42.6691V5.52759H48.4702V7.88619H42.6691V10.8865H48.6554V13.2659Z" fill="#C32E18"/>
<path d="M53.5554 13.2659H50.9036V0.151367H56.3924C57.8218 0.151367 58.9716 0.562966 59.8418 1.38616C60.2685 1.7867 60.6058 2.27465 60.8312 2.81744C61.0566 3.36024 61.1649 3.94539 61.1489 4.53386C61.1489 5.81028 60.7218 6.84043 59.8521 7.64513C58.9825 8.44983 57.8127 8.85911 56.3839 8.85911H53.5554V13.2659ZM53.5554 2.52905V6.48317H56.389C57.5897 6.48317 58.4113 5.65593 58.4113 4.51478C58.4113 3.37363 57.5948 2.52905 56.389 2.52905H53.5554Z" fill="#C32E18"/>
<path d="M65.4921 13.2659H62.8403V0.151367H74.1474V13.2676H71.4973V2.52904H65.4939L65.4921 13.2659Z" fill="#101D23"/>
<path d="M89.1489 13.2659H86.3136L85.3873 10.42H79.2896L78.3805 13.2659H75.6926L80.0666 0.151367H84.775L89.1489 13.2659ZM82.3479 0.935255L80.0494 8.04574H84.6275L82.3479 0.935255Z" fill="#101D23"/>
<path d="M93.3457 13.2659H90.6938V0.151367H93.3457V5.52759H99.3491V0.151367H101.999V13.2676H99.3508V7.89139H93.3474L93.3457 13.2659Z" fill="#101D23"/>
</svg>
