<svg width="18" height="18" viewBox="0 0 18 18" fill="none" xmlns="http://www.w3.org/2000/svg">
<rect width="18" height="18" fill="white"/>
<path fill-rule="evenodd" clip-rule="evenodd" d="M4.1031 8.20424C5.80859 10.2887 7.71775 12.1979 9.80224 13.9034L10.342 14.345C11.2367 15.077 12.5404 15.012 13.3578 14.1946L14.62 12.9324L12.2335 10.5459L10.2448 12.5347L5.46342 7.75328L7.45879 5.77117L5.07408 3.38646L3.81186 4.64867C2.99449 5.46604 2.92946 6.7698 3.66145 7.66444L4.1031 8.20424ZM8.85238 15.0643C6.69069 13.2957 4.71082 11.3158 2.94216 9.15409L2.50051 8.6143C1.28054 7.12322 1.38891 4.9503 2.7512 3.58801L5.07408 1.26514L9.58365 5.77471L7.58829 7.75682L10.2448 10.4133L12.2335 8.42459L16.7413 12.9324L14.4185 15.2553C13.0562 16.6176 10.8833 16.7259 9.39217 15.506L8.85238 15.0643Z" fill="#E93D07"/>
</svg>
