<svg width="47" height="53" viewBox="0 0 47 53" fill="none" xmlns="http://www.w3.org/2000/svg">
<path d="M9.9375 0C8.11562 0 6.625 1.49062 6.625 3.3125V49.6875C6.625 51.5094 8.11562 53 9.9375 53H43.0625C44.8844 53 46.375 51.5094 46.375 49.6875V13.25L33.125 0H9.9375Z" fill="#E2E5E7"/>
<path d="M36.4375 13.25H46.375L33.125 0V9.9375C33.125 11.7594 34.6156 13.25 36.4375 13.25Z" fill="#B0B7BD"/>
<path d="M46.375 23.1875L36.4375 13.25H46.375V23.1875Z" fill="#CAD1D8"/>
<path d="M39.75 43.0625C39.75 43.9734 39.0047 44.7188 38.0938 44.7188H1.65625C0.745312 44.7188 0 43.9734 0 43.0625V26.5C0 25.5891 0.745312 24.8438 1.65625 24.8438H38.0938C39.0047 24.8438 39.75 25.5891 39.75 26.5V43.0625Z" fill="#F15642"/>
<path d="M7.60547 31.3808C7.60547 30.9436 7.94997 30.4666 8.50481 30.4666H11.5639C13.2864 30.4666 14.8367 31.6193 14.8367 33.8287C14.8367 35.9222 13.2864 37.0882 11.5639 37.0882H9.35281V38.8372C9.35281 39.4202 8.98347 39.7498 8.50647 39.7498C8.06922 39.7498 7.60712 39.4202 7.60712 38.8372V31.3808H7.60547ZM9.35281 32.1344V35.4336H11.5639C12.4517 35.4336 13.1539 34.6502 13.1539 33.8287C13.1539 32.9029 12.4517 32.1344 11.5639 32.1344H9.35281Z" fill="white"/>
<path d="M16.5244 31.3808C16.5244 30.9436 16.8689 30.4666 17.4254 30.4666H20.4845C22.207 30.4666 23.7573 31.6193 23.7573 33.8287C23.7573 35.9222 22.207 37.0882 20.4845 37.0882H18.2734V38.8372C18.2734 39.4202 17.9024 39.7498 17.4254 39.7498C16.9882 39.7498 16.5244 39.4202 16.5244 38.8372V31.3808ZM18.2718 32.1344V35.4336H20.4829C21.3706 35.4336 22.0729 34.6502 22.0729 33.8287C22.0729 32.9029 21.3706 32.1344 20.4829 32.1344H18.2718Z" fill="white"/>
<path d="M27.9183 32.2422H25.6028C24.4501 32.2422 24.4501 30.5479 25.6028 30.5479H31.8651C33.0444 30.5479 33.0444 32.2422 31.8651 32.2422H29.6673V38.9301C29.6673 40.0812 27.9183 40.1094 27.9183 38.9301V32.2422Z" fill="white"/>
<path d="M38.0938 44.7188H6.625V46.375H38.0938C39.0047 46.375 39.75 45.6297 39.75 44.7188V43.0625C39.75 43.9734 39.0047 44.7188 38.0938 44.7188Z" fill="#CAD1D8"/>
</svg>
