<svg width="18" height="18" viewBox="0 0 18 18" fill="none" xmlns="http://www.w3.org/2000/svg">
<path d="M0 9C0 4.02944 4.02944 0 9 0C13.9706 0 18 4.02944 18 9C18 13.9706 13.9706 18 9 18C4.02944 18 0 13.9706 0 9Z" fill="#FF0000"/>
<path d="M13.5996 6.77765C13.4892 6.35353 13.1639 6.01954 12.7508 5.90619C12.0022 5.7002 9.0002 5.7002 9.0002 5.7002C9.0002 5.7002 5.99818 5.7002 5.24954 5.90619C4.83647 6.01954 4.51116 6.35353 4.40076 6.77765C4.2002 7.54633 4.2002 9.1502 4.2002 9.1502C4.2002 9.1502 4.2002 10.754 4.40076 11.5227C4.51116 11.9469 4.83647 12.2808 5.24954 12.3943C5.99818 12.6002 9.0002 12.6002 9.0002 12.6002C9.0002 12.6002 12.0022 12.6002 12.7508 12.3943C13.1639 12.2808 13.4892 11.9469 13.5996 11.5227C13.8002 10.754 13.8002 9.1502 13.8002 9.1502C13.8002 9.1502 13.8002 7.54633 13.5996 6.77765Z" fill="white"/>
<path d="M8.1001 10.7998V7.7998L10.5001 9.29986L8.1001 10.7998Z" fill="#FF0000"/>
</svg>
